<?xml version="1.0" encoding="UTF-8"?>
<svg id="Layer_1" xmlns="http://www.w3.org/2000/svg" viewBox="0 0 579.39 590.59">
  <defs>
    <style>
      {`
      .cls-1, .cls-2 {
        fill: none;
      }

      .cls-3 {
        fill: #ddd9d8;
      }

      .cls-3, .cls-2 {
        stroke: #000;
        stroke-miterlimit: 10;
      }
      `}
    </style>
  </defs>
  <g>
    <path className="cls-2" d="M225.75,212.26l13.36,51.89s48.56-7.44,100.52.46l13.36-52.35s-19.2-13.18-38.78-15.06h-48.94s-28.99,4.14-39.53,15.06Z"/>
    <path className="cls-2" d="M314.22,197.2s19.66,1.91,38.78,15.06l-5.08-58.35s-.75-26.35-23.72-24.47l-68.52-.1s-15.89-4.04-24.7,18.17l-5.04,64s17.97-12.13,39.34-14.31h48.94Z"/>
    <path className="cls-2" d="M239.11,264.61s51.95-9.41,100.52,0c0,0-15.44,75.29,0,116.71,0,0-54.21,15.81-100.52,0,0,0,16.56-51.58,0-116.71Z"/>
    <path className="cls-2" d="M239.11,381.31s35.66,16.09,100.52,0l10.35,35s-66.26,16.56-121.22,0l10.35-35Z"/>
    <path className="cls-2" d="M228.76,416.32s44.13,16.85,120.96-.32v35.75s2.26,8.28-10.54,9.41h-89.6s-16.94,3.01-20.71-7.91l-.11-36.94Z"/>
  </g>
  <g>
    <path className="cls-2" d="M178.72,461.19s4.25-.88,5.01-4.27h24.09s3.39-.56,4.71-3.76v-30.87s6.4-12.42,10.54-16.56c1.27-1.27,2.34-2.84,3.41-4.27,2.81-3.75,5.4-7.66,7.76-11.71,2.22-3.81,4.24-7.74,5.99-11.78,4.7-10.8,4.84-23.25,5.37-34.86,1.05-22.95.18-46.72-4.85-69.2-.5-2.24-.87-5.31-2.3-7.2,0,0-.09-.21-.27-.6l-1.64,3.79-28.8-47.44v-.2l-5.01-8.54-10.92-63.06s-.38-11.91.61-12.53c-.05-.05-.09-.13-.14-.17,0,0-15.53-17.79-44.33-3.11v27.39s.67-.07,1.81-.13c3.81-.96,7.92-1.16,12.17-.41,12.07,2.13,21.54,11.97,23.27,24.1.66,4.6.2,9.01-1.11,13.04-1.02,3.88-3.06,7.7-6.66,11.06-5.22,5.41-12.54,8.78-20.66,8.78-3.08,0-6.04-.49-8.82-1.39v146.7s.23,0,.64-.01c3.66-1.09,7.62-1.48,11.74-.97,13.53,1.66,24.16,12.88,25.09,26.48.6,8.84-2.8,16.9-8.57,22.54-4.67,5.03-12.41,9.61-24.76,7.92l1.69,36.96s2.35,5.23,7.98,4.27h16.94M196.97,293.06c0-4.47.56-8.09,1.25-8.09s1.25,3.62,1.25,8.09-.56,8.09-1.25,8.09-1.25-3.62-1.25-8.09ZM206.53,256.56l-.83-21.48c5.74,5.57,10.49,11.73,14.4,18.05.04.07.08.14.13.21,16.62,27.01,18.22,57.03,18.22,57.03l-30.12-7.34-1.8-46.48Z"/>
    <path className="cls-1" d="M184.1,198.84c-1.36,4.2-3.66,7.96-6.66,11.06,3.6-3.36,5.64-7.18,6.66-11.06Z"/>
    <path className="cls-3" d="M235.89,374.25l-26.2,9.67v16.64s.28,4.24,5.08,1.69c0,0,15.09-15.54,21.58-27.48.16-.3-.14-.63-.45-.51Z"/>
    <path className="cls-3" d="M208.08,222.45l-.07-.12v.2l28.8,47.44,1.64-3.79c-.44-.98-1.4-3.13-2.72-6.05l-25.66-51.19-1.99,13.51Z"/>
    <path className="cls-2" d="M193.3,139.59c-.37-1.19-.65-1.59-.87-1.45.27.33.57.83.88,1.49,0-.01,0-.03-.01-.04Z"/>
    <path className="cls-2" d="M191.82,150.64l10.92,63.06,5.01,8.54,1.57-12.59.2-1.69h0c-2.84-9.23-11.91-54.42-16.21-68.36-.31-.66-.61-1.17-.88-1.49-.99.62-.61,12.53-.61,12.53Z"/>
    <polygon className="cls-3" points="209.32 209.67 209.51 207.99 207.75 222.26 207.82 222.39 209.32 209.67"/>
    <path className="cls-2" d="M176.86,412.04c5.33-5.21,8.64-12.48,8.64-20.53,0-15.86-12.86-28.72-28.72-28.72-2.84,0-5.59.42-8.18,1.19"/>
    <g>
      <circle className="cls-2" cx="156.79" cy="189.97" r="17.09"/>
      <circle className="cls-2" cx="156.79" cy="189.97" r="22.01"/>
    </g>
    <g>
      <circle className="cls-2" cx="156.79" cy="391.51" r="17.09"/>
      <circle className="cls-2" cx="156.79" cy="391.51" r="22.01"/>
    </g>
    <path className="cls-2" d="M180.29,173.73s-11.72-18.2-32.33-10.73v-27.81s16.52-9.6,32.33-4.8v43.34Z"/>
    <path className="cls-2" d="M191.82,150.67l.47-12.71s-4.94-6.16-12-7.57v16.09s7.15.47,11.53,4.18Z"/>
    <path className="cls-2" d="M183.9,400.83v55.8s-1.13,3.87-5.08,4.63h-16.94s-6.14.98-8.03-5.24l-1.65-36s23.46,4.44,31.7-19.19Z"/>
    <path className="cls-2" d="M207.75,456.93v-5.69c0-3.13-2.54-5.67-5.67-5.67h-5.78c-1.66,0-3.1,1.18-3.42,2.81l-1.7,8.55h16.56Z"/>
    <path className="cls-2" d="M155.3,218.65s-5-.27-7.34-1.35l-.38,147.41s4.62-1.92,7.72-1.88v-144.18Z"/>
    <path className="cls-2" d="M194.89,381.9c-5.65,0-7.34-6.78-7.34-6.78-9.32-15.81-31.91-14.68-31.91-14.68v-52.8h44.33c4.52,0,41.51,6.78,41.51,6.78l-1.41,54.78-33.32,12.71h-11.86Z"/>
    <path className="cls-2" d="M241.38,313.72l-37.46-6.21h-48.38v-74.73s1.69-3.58,7.34-3.58h33.99c3.57,0,7.04,1.21,9.79,3.48,9.76,8.04,31.24,31.19,34.71,81.04Z"/>
    <polygon className="cls-3" points="238.03 316.69 207.82 314.15 207.82 376.55 236.62 366.67 238.03 316.69"/>
    <path className="cls-2" d="M199.47,293.06c0-4.47-.56-8.09-1.25-8.09s-1.25,3.62-1.25,8.09.56,8.09,1.25,8.09,1.25-3.62,1.25-8.09Z"/>
    <g>
      <path className="cls-3" d="M220.23,253.35c-2.21,2.53-5.45,4.13-9.07,4.13-1.64,0-3.2-.33-4.63-.92l1.8,46.48,30.12,7.34s-1.6-30.01-18.22-57.03Z"/>
      <path className="cls-2" d="M220.23,253.35c-.04-.07-.08-.14-.13-.21-3.92-6.33-8.66-12.49-14.4-18.05l.83,21.48c1.42.59,2.99.92,4.63.92,3.62,0,6.86-1.61,9.07-4.13Z"/>
    </g>
    <path className="cls-2" d="M199.47,365.82c0-4.47-.56-8.09-1.25-8.09s-1.25,3.62-1.25,8.09.56,8.09,1.25,8.09,1.25-3.62,1.25-8.09Z"/>
  </g>
  <g>
    <path className="cls-2" d="M400.67,461.19h16.94c5.63.97,7.98-4.27,7.98-4.27l1.69-36.96c-12.35,1.68-20.09-2.89-24.76-7.92-5.77-5.65-9.18-13.7-8.57-22.54.93-13.6,11.56-24.83,25.09-26.48,4.12-.5,8.08-.11,11.74.97.41,0,.64.01.64.01v-146.7c-2.78.9-5.74,1.39-8.82,1.39-8.11,0-15.43-3.37-20.66-8.78-3.6-3.36-5.64-7.18-6.66-11.06-1.31-4.03-1.76-8.45-1.11-13.04,1.73-12.13,11.2-21.96,23.27-24.1,4.25-.75,8.36-.55,12.17.41,1.14.06,1.81.13,1.81.13v-27.39c-28.8-14.68-44.33,3.11-44.33,3.11-.04.04-.09.12-.14.17.99.62.61,12.53.61,12.53l-10.92,63.06-5.01,8.54v.2s-28.8,47.44-28.8,47.44l-1.64-3.79c-.17.39-.27.6-.27.6-1.43,1.89-1.8,4.96-2.3,7.2-5.03,22.48-5.9,46.25-4.85,69.2.53,11.61.68,24.06,5.37,34.86,1.76,4.04,3.77,7.97,5.99,11.78,2.36,4.05,4.95,7.96,7.76,11.71,1.07,1.43,2.14,3,3.41,4.27,4.14,4.14,10.54,16.56,10.54,16.56v30.87c1.32,3.2,4.71,3.76,4.71,3.76h24.09c.75,3.39,5.01,4.27,5.01,4.27M381.17,301.16c-.69,0-1.25-3.62-1.25-8.09s.56-8.09,1.25-8.09,1.25,3.62,1.25,8.09-.56,8.09-1.25,8.09ZM371.05,303.04l-30.12,7.34s1.6-30.01,18.22-57.03c.04-.07.08-.14.13-.21,3.92-6.33,8.66-12.49,14.4-18.05l-.83,21.48-1.8,46.48Z"/>
    <path className="cls-1" d="M395.29,198.84c1.36,4.2,3.66,7.96,6.66,11.06-3.6-3.36-5.64-7.18-6.66-11.06Z"/>
    <path className="cls-3" d="M343.5,374.25l26.2,9.67v16.64s-.28,4.24-5.08,1.69c0,0-15.09-15.54-21.58-27.48-.16-.3.14-.63.45-.51Z"/>
    <path className="cls-3" d="M371.3,222.45l.07-.12v.2s-28.8,47.44-28.8,47.44l-1.64-3.79c.44-.98,1.4-3.13,2.72-6.05l25.66-51.19,1.99,13.51Z"/>
    <path className="cls-2" d="M386.09,139.59c.37-1.19.65-1.59.87-1.45-.27.33-.57.83-.88,1.49,0-.01,0-.03.01-.04Z"/>
    <path className="cls-2" d="M387.57,150.64l-10.92,63.06-5.01,8.54-1.57-12.59-.2-1.69h0c2.84-9.23,11.91-54.42,16.21-68.36.31-.66.61-1.17.88-1.49.99.62.61,12.53.61,12.53Z"/>
    <polygon className="cls-3" points="370.07 209.67 369.87 207.99 371.64 222.26 371.57 222.39 370.07 209.67"/>
    <path className="cls-2" d="M402.52,412.04c-5.33-5.21-8.64-12.48-8.64-20.53,0-15.86,12.86-28.72,28.72-28.72,2.84,0,5.59.42,8.18,1.19"/>
    <g>
      <circle className="cls-2" cx="422.6" cy="189.97" r="17.09"/>
      <circle className="cls-2" cx="422.6" cy="189.97" r="22.01"/>
    </g>
    <g>
      <circle className="cls-2" cx="422.6" cy="391.51" r="17.09"/>
      <circle className="cls-2" cx="422.6" cy="391.51" r="22.01"/>
    </g>
    <path className="cls-2" d="M399.1,173.73s11.72-18.2,32.33-10.73v-27.81s-16.52-9.6-32.33-4.8v43.34Z"/>
    <path className="cls-2" d="M387.57,150.67l-.47-12.71s4.94-6.16,12-7.57v16.09s-7.15.47-11.53,4.18Z"/>
    <path className="cls-2" d="M395.48,400.83v55.8s1.13,3.87,5.08,4.63h16.94s6.14.98,8.03-5.24l1.65-36s-23.46,4.44-31.7-19.19Z"/>
    <path className="cls-2" d="M371.64,456.93v-5.69c0-3.13,2.54-5.67,5.67-5.67h5.78c1.66,0,3.1,1.18,3.42,2.81l1.7,8.55h-16.56Z"/>
    <path className="cls-2" d="M424.08,218.65s5-.27,7.34-1.35l.38,147.41s-4.62-1.92-7.72-1.88v-144.18Z"/>
    <path className="cls-2" d="M384.49,381.9c5.65,0,7.34-6.78,7.34-6.78,9.32-15.81,31.91-14.68,31.91-14.68v-52.8s-44.33,0-44.33,0c-4.52,0-41.51,6.78-41.51,6.78l1.41,54.78,33.32,12.71h11.86Z"/>
    <path className="cls-2" d="M338,313.72l37.46-6.21h48.38s0-74.73,0-74.73c0,0-1.69-3.58-7.34-3.58h-33.99c-3.57,0-7.04,1.21-9.79,3.48-9.76,8.04-31.24,31.19-34.71,81.04Z"/>
    <polygon className="cls-3" points="341.36 316.69 371.57 314.15 371.57 376.55 342.77 366.67 341.36 316.69"/>
    <path className="cls-2" d="M379.92,293.06c0-4.47.56-8.09,1.25-8.09s1.25,3.62,1.25,8.09-.56,8.09-1.25,8.09-1.25-3.62-1.25-8.09Z"/>
    <g>
      <path className="cls-3" d="M359.16,253.35c2.21,2.53,5.45,4.13,9.07,4.13,1.64,0,3.2-.33,4.63-.92l-1.8,46.48-30.12,7.34s1.6-30.01,18.22-57.03Z"/>
      <path className="cls-2" d="M359.16,253.35c.04-.07.08-.14.13-.21,3.92-6.33,8.66-12.49,14.4-18.05l-.83,21.48c-1.42.59-2.99.92-4.63.92-3.62,0-6.86-1.61-9.07-4.13Z"/>
    </g>
    <path className="cls-2" d="M379.92,365.82c0-4.47.56-8.09,1.25-8.09s1.25,3.62,1.25,8.09-.56,8.09-1.25,8.09-1.25-3.62-1.25-8.09Z"/>
  </g>
</svg>