<?xml version="1.0" encoding="UTF-8"?>
<svg id="Layer_1" xmlns="http://www.w3.org/2000/svg" viewBox="0 0 529.41 323.58">
  <defs>
    <style>{`
    
      .cls-1, .cls-2 {
        fill: none;
      }

      .cls-3 {
        fill: #ddd9d8;
      }

      .cls-3, .cls-2 {
        stroke: #000;
        stroke-miterlimit: 10;
      }
    `}
    </style>
  </defs>
  <path className="cls-2" d="M422.1,173.18s-.88-4.25-4.27-5.01v-24.09s-.56-3.39-3.76-4.71h-30.87s-7.91-4.88-14.28-9.06c-1.5-.98-5.12-3.82-6.55-4.89-3.75-2.81-7.66-5.4-11.71-7.76-3.81-2.22-7.74-4.24-11.78-5.99-10.8-4.7-23.25-4.84-34.86-5.37-22.95-1.05-46.72-.18-69.2,4.85-2.24.5-5.31.87-7.2,2.3,0,0-.21.09-.6.27l3.79,1.64-47.44,28.8h-.2l-8.54,5.01-63.06,10.92s-11.91.38-12.53-.61c-.05.05-.13.09-.17.14,0,0-17.79,15.53-3.11,44.33h27.39s-.07-.67-.13-1.81c-.96-3.81-1.16-7.92-.41-12.17,2.13-12.07,11.97-21.54,24.1-23.27,4.6-.66,9.01-.2,13.04,1.11,3.88,1.02,7.7,3.06,11.06,6.66,5.41,5.22,8.78,12.54,8.78,20.66,0,3.08-.49,6.04-1.39,8.82h146.7s0-.23-.01-.64c-1.09-3.66-1.48-7.62-.97-11.74,1.66-13.53,12.88-24.16,26.48-25.09,8.84-.6,16.9,2.8,22.54,8.57,5.03,4.67,9.61,12.41,7.92,24.76l36.96-1.69s5.23-2.35,4.27-7.98v-16.94M253.97,154.93c-4.47,0-8.09-.56-8.09-1.25s3.62-1.25,8.09-1.25,8.09.56,8.09,1.25-3.62,1.25-8.09,1.25ZM217.47,145.36l-21.48.83c5.57-5.74,11.73-10.49,18.05-14.4.07-.04.14-.08.21-.13,27.01-16.62,57.03-18.22,57.03-18.22l-7.34,30.12-46.48,1.8Z"/>
  <path className="cls-1" d="M159.76,167.8c4.2,1.36,7.96,3.66,11.06,6.66-3.36-3.6-7.18-5.64-11.06-6.66Z"/>
  <path className="cls-3" d="M183.36,143.81l-.12.07h.2l47.44-28.8-3.79-1.64c-.98.44-3.13,1.4-6.05,2.72l-51.19,25.66,13.51,1.99Z"/>
  <path className="cls-2" d="M100.5,158.6c-1.19.37-1.59.65-1.45.87.33-.27.83-.57,1.49-.88-.01,0-.03,0-.04.01Z"/>
  <path className="cls-2" d="M111.55,160.08l63.06-10.92,8.54-5.01-12.59-1.57-1.69-.2h0c-9.23,2.84-54.42,11.91-68.36,16.21-.66.31-1.17.61-1.49.88.62.99,12.53.61,12.53.61Z"/>
  <polygon className="cls-3" points="170.59 142.58 168.9 142.39 183.18 144.15 183.3 144.08 170.59 142.58"/>
  <path className="cls-2" d="M372.95,175.04c-5.21-5.33-12.48-8.64-20.53-8.64-15.86,0-28.72,12.86-28.72,28.72,0,2.84.42,5.59,1.19,8.18"/>
  <g>
    <circle className="cls-2" cx="150.88" cy="195.11" r="17.09"/>
    <circle className="cls-2" cx="150.88" cy="195.11" r="22.01"/>
  </g>
  <g>
    <circle className="cls-2" cx="352.42" cy="195.11" r="17.09"/>
    <circle className="cls-2" cx="352.42" cy="195.11" r="22.01"/>
  </g>
  <path className="cls-2" d="M134.65,171.61s-18.2,11.72-10.73,32.33h-27.81s-9.6-16.52-4.8-32.33h43.34Z"/>
  <path className="cls-2" d="M361.75,168h55.8s3.87,1.13,4.63,5.08v16.94s.98,6.14-5.24,8.03l-36,1.65s4.44-23.46-19.19-31.7Z"/>
  <path className="cls-2" d="M179.56,196.6s-.27,5-1.35,7.34l147.41.38s-1.92-4.62-1.88-7.72h-144.18Z"/>
  <path className="cls-2" d="M342.81,157.01c0,5.65-6.78,7.34-6.78,7.34-15.81,9.32-14.68,31.91-14.68,31.91h-52.8v-44.33c0-4.52,6.78-41.51,6.78-41.51l54.78,1.41,12.71,33.32v11.86Z"/>
  <path className="cls-2" d="M274.63,110.52l-6.21,37.46v48.38h-74.73s-3.58-1.69-3.58-7.34v-33.99c0-3.57,1.21-7.04,3.48-9.79,8.04-9.76,31.19-31.24,81.04-34.71Z"/>
  <path className="cls-2" d="M342.81,145.15s-13.31-35.37-13.31-35.37c-.54-1.51-.94-1.32-.15-1.11,18.77,4.95,34.9,18.36,34.9,18.36,0,0,0,0,0,0,4.79,3.98,18.47,11.82,19.15,12.13.02,0,.04.01.06.01l29.68.38s.03,0,.05,0c3.84,1.11,4.47,4.53,4.49,4.69,0,0,0,.01,0,.02v23.36c0,.09-.07.16-.15.16l-53.55.63s-.04,0-.05,0c-5.46-2.06-15.61-1.71-15.62-1.71h0c-25.01,4.01-24.68,27.52-24.59,29.74,0,.09-.08.16-.17.16l-1.33-.1c-.73-.06-1.3-.67-1.28-1.41,0,0,.71-23.38,15.08-30.73,6.67-2.18,6.78-7.34,6.78-7.34v-11.86Z"/>
  <path className="cls-2" d="M140.29,168.4c19.47-6.96,34.74,4.97,38.7,20.81.21.85.57,7.38.57,7.38.01,0,13.43-.22,13.43-.22-2.4-.99-2.68-4.38-2.68-4.38v-38.68c0-2.07.59-4.1,1.71-5.84.47-.74.85-1.29.85-1.29l-9.69-2.03-8.54,5.21-62.34,10.59c-2.82,1.27-4.72,11.58-4.72,11.58,1.36.06,2.71.17,4.07.18,6.23.04,17.56-.34,23-.1,0,0,3.49-2.44,5.64-3.21Z"/>
  <path className="cls-2" d="M253.97,152.43c-4.47,0-8.09.56-8.09,1.25s3.62,1.25,8.09,1.25,8.09-.56,8.09-1.25-3.62-1.25-8.09-1.25Z"/>
  <path className="cls-2" d="M111.58,160.08l-12.71-.47s-6.16,4.94-7.57,12h16.09s.47-7.15,4.18-11.53Z"/>
  <path className="cls-2" d="M417.84,144.15h-5.69c-3.13,0-5.67,2.54-5.67,5.67v5.78c0,1.66,1.18,3.1,2.81,3.42l8.55,1.7v-16.56Z"/>
  <polygon className="cls-3" points="277.6 113.87 275.06 144.08 337.46 144.08 327.58 115.28 277.6 113.87"/>
  <path className="cls-2" d="M326.73,152.43c-4.47,0-8.09.56-8.09,1.25s3.62,1.25,8.09,1.25,8.09-.56,8.09-1.25-3.62-1.25-8.09-1.25Z"/>
  <path className="cls-3" d="M335.16,116.01l9.67,26.2h16.64s4.24-.28,1.69-5.08c0,0-15.54-15.09-27.48-21.58-.3-.16-.63.14-.51.45Z"/>
  <g>
    <path className="cls-3" d="M214.26,131.67c2.53,2.21,4.13,5.45,4.13,9.07,0,1.64-.33,3.2-.92,4.63l46.48-1.8,7.34-30.12s-30.01,1.6-57.03,18.22Z"/>
    <path className="cls-2" d="M214.26,131.67c-.07.04-.14.08-.21.13-6.33,3.92-12.49,8.66-18.05,14.4l21.48-.83c.59-1.42.92-2.99.92-4.63,0-3.62-1.61-6.86-4.13-9.07Z"/>
  </g>
</svg>