<?xml version="1.0" encoding="UTF-8"?>
<svg id="Layer_1" xmlns="http://www.w3.org/2000/svg" viewBox="0 0 579.39 590.59">
  <defs>
    <style>
      .cls-1, .cls-2 {
        fill: none;
      }

      .cls-3 {
        fill: #ddd9d8;
      }

      .cls-3, .cls-2 {
        stroke: #000;
        stroke-miterlimit: 10;
      }
    </style>
  </defs>
  <path className="cls-2" d="M135.59,312.83v16.94c-.97,5.63,4.27,7.98,4.27,7.98l36.96,1.69c-1.68-12.35,2.89-20.09,7.92-24.76,5.65-5.77,13.7-9.18,22.54-8.57,13.6.93,24.83,11.56,26.48,25.09.5,4.12.11,8.08-.97,11.74,0,.41-.01.64-.01.64h146.7c-.9-2.78-1.39-5.74-1.39-8.82,0-8.11,3.37-15.43,8.78-20.66,3.36-3.6,7.18-5.64,11.06-6.66,4.03-1.31,8.45-1.76,13.04-1.11,12.13,1.73,21.96,11.2,24.1,23.27.75,4.25.55,8.36-.41,12.17-.06,1.14-.13,1.81-.13,1.81h27.39c14.68-28.8-3.11-44.33-3.11-44.33-.04-.04-.12-.09-.17-.14-.62.99-12.53.61-12.53.61l-63.06-10.92-8.54-5.01h-.2s-47.44-28.8-47.44-28.8l3.79-1.64c-.39-.17-.6-.27-.6-.27-1.89-1.43-4.96-1.8-7.2-2.3-22.48-5.03-46.25-5.9-69.2-4.85-11.61.53-24.06.68-34.86,5.37-4.04,1.76-7.97,3.77-11.78,5.99-4.05,2.36-7.96,4.95-11.71,7.76-1.43,1.07-3,2.14-4.27,3.41-4.14,4.14-16.56,10.54-16.56,10.54h-30.87c-3.2,1.32-3.76,4.71-3.76,4.71v24.09c-3.39.75-4.27,5.01-4.27,5.01M295.63,293.33c0-.69,3.62-1.25,8.09-1.25s8.09.56,8.09,1.25c0,.69-3.62,1.25-8.09,1.25s-8.09-.56-8.09-1.25ZM293.75,283.21l-7.34-30.12s30.01,1.6,57.03,18.22c.07.04.14.08.21.13,6.33,3.92,12.49,8.66,18.05,14.4l-21.48-.83-46.48-1.8Z"/>
  <path className="cls-1" d="M397.94,307.45c-4.2,1.36-7.96,3.66-11.06,6.66,3.36-3.6,7.18-5.64,11.06-6.66Z"/>
  <path className="cls-3" d="M222.54,255.66l-9.67,26.2h-16.64s-4.24-.28-1.69-5.08c0,0,15.54-15.09,27.48-21.58.3-.16.63.14.51.45Z"/>
  <path className="cls-3" d="M374.33,283.46l.12.07h-.2s-47.44-28.8-47.44-28.8l3.79-1.64c.98.44,3.13,1.4,6.05,2.72l51.19,25.66-13.51,1.99Z"/>
  <path className="cls-2" d="M457.2,298.25c1.19.37,1.59.65,1.45.87-.33-.27-.83-.57-1.49-.88.01,0,.03,0,.04.01Z"/>
  <path className="cls-2" d="M446.14,299.73l-63.06-10.92-8.54-5.01,12.59-1.57,1.69-.2h0c9.23,2.84,54.42,11.91,68.36,16.21.66.31,1.17.61,1.49.88-.62.99-12.53.61-12.53.61Z"/>
  <polygon className="cls-3" points="387.11 282.23 388.8 282.03 374.52 283.8 374.4 283.73 387.11 282.23"/>
  <path className="cls-2" d="M184.75,314.68c5.21-5.33,12.48-8.64,20.53-8.64,15.86,0,28.72,12.86,28.72,28.72,0,2.84-.42,5.59-1.19,8.18"/>
  <g>
    <circle className="cls-2" cx="406.82" cy="334.76" r="17.09"/>
    <circle className="cls-2" cx="406.82" cy="334.76" r="22.01"/>
  </g>
  <g>
    <circle className="cls-2" cx="205.27" cy="334.76" r="17.09"/>
    <circle className="cls-2" cx="205.27" cy="334.76" r="22.01"/>
  </g>
  <path className="cls-2" d="M423.05,311.25s18.2,11.72,10.73,32.33h27.81s9.6-16.52,4.8-32.33h-43.34Z"/>
  <path className="cls-2" d="M446.12,299.73l12.71-.47s6.16,4.94,7.57,12h-16.09s-.47-7.15-4.18-11.53Z"/>
  <path className="cls-2" d="M195.95,307.64h-55.8s-3.87,1.13-4.63,5.08v16.94s-.98,6.14,5.24,8.03l36,1.65s-4.44-23.46,19.19-31.7Z"/>
  <path className="cls-2" d="M139.86,283.8h5.69c3.13,0,5.67,2.54,5.67,5.67v5.78c0,1.66-1.18,3.1-2.81,3.42l-8.55,1.7v-16.56Z"/>
  <path className="cls-2" d="M378.14,336.24s.27,5,1.35,7.34l-147.41.38s1.92-4.62,1.88-7.72h144.18Z"/>
  <path className="cls-2" d="M214.89,296.65c0,5.65,6.78,7.34,6.78,7.34,15.81,9.32,14.68,31.91,14.68,31.91h52.8s0-44.33,0-44.33c0-4.52-6.78-41.51-6.78-41.51l-54.78,1.41-12.71,33.32v11.86Z"/>
  <path className="cls-2" d="M283.07,250.16l6.21,37.46v48.38s74.73,0,74.73,0c0,0,3.58-1.69,3.58-7.34v-33.99c0-3.57-1.21-7.04-3.48-9.79-8.04-9.76-31.19-31.24-81.04-34.71Z"/>
  <polygon className="cls-3" points="280.1 253.51 282.64 283.73 220.24 283.73 230.12 254.93 280.1 253.51"/>
  <path className="cls-2" d="M303.72,292.08c4.47,0,8.09.56,8.09,1.25,0,.69-3.62,1.25-8.09,1.25s-8.09-.56-8.09-1.25c0-.69,3.62-1.25,8.09-1.25Z"/>
  <g>
    <path className="cls-3" d="M343.44,271.32c-2.53,2.21-4.13,5.45-4.13,9.07,0,1.64.33,3.2.92,4.63l-46.48-1.8-7.34-30.12s30.01,1.6,57.03,18.22Z"/>
    <path className="cls-2" d="M343.44,271.32c.07.04.14.08.21.13,6.33,3.92,12.49,8.66,18.05,14.4l-21.48-.83c-.59-1.42-.92-2.99-.92-4.63,0-3.62,1.61-6.86,4.13-9.07Z"/>
  </g>
  <path className="cls-2" d="M230.97,292.08c4.47,0,8.09.56,8.09,1.25,0,.69-3.62,1.25-8.09,1.25s-8.09-.56-8.09-1.25c0-.69,3.62-1.25,8.09-1.25Z"/>
</svg>