<?xml version="1.0" encoding="UTF-8"?>
<svg id="Layer_1" xmlns="http://www.w3.org/2000/svg" viewBox="0 0 579.39 590.59">
  <defs>
    <style>
      {
        `
        .cls-1 {
        fill: none;
        stroke: #000;
        stroke-miterlimit: 10;
      }
      `
      }
    </style>
  </defs>
  <path className="cls-1" d="M226.55,232.63l13.36,51.89s48.56-7.44,100.52.46l13.36-52.35s-19.2-13.18-38.78-15.06h-48.94s-28.99,4.14-39.53,15.06Z"/>
  <path className="cls-1" d="M314.08,216.82s33.88,7.53,39.53,15.06l-4.89-57.6s-.75-26.35-23.72-24.47l-68.52-.1s-15.89-4.04-24.7,18.17l-5.04,64s17.97-12.13,39.34-14.31l48-.75Z"/>
  <path className="cls-1" d="M239.92,284.98s51.95-9.41,100.52,0c0,0-15.44,75.29,0,116.71,0,0-54.21,15.81-100.52,0,0,0,16.56-51.58,0-116.71Z"/>
  <path className="cls-1" d="M239.92,401.69s35.66,16.09,100.52,0l10.35,35s-66.26,16.56-121.22,0l10.35-35Z"/>
  <path className="cls-1" d="M229.56,436.69s44.13,16.85,120.96-.32v35.75s2.26,8.28-10.54,9.41h-89.6s-16.94,3.01-20.71-7.91l-.11-36.94Z"/>
</svg>